# File created by Blade
# Date/Time:  Thu Jan 22 16:25:48 2015
# Frame Rate: 120.000 fps
#------------------------------------------------------
:FULLY-SPECIFIED
:DEGREES
994
root 4.233302 37.398250 7.340450 0.146729 -1.661557 -1.228928
RightUpLeg -7.631709 2.072281 -0.365901
RightLeg 23.540339 -0.000000 -0.000000
RightFoot -22.490872 -20.957461 17.708835
RightToeBase 2.395297 -0.000000 -0.000000
LeftUpLeg 6.993637 4.422614 2.316642
LeftLeg -3.550275 -0.000000 0.000000
LeftFoot -8.301618 11.754690 -16.517174
LeftToeBase 9.270618 -0.000000 -0.000000
Spine 15.594215 -10.156803 -7.004360
RightShoulder -4.821632 -20.640777 -20.682654
RightArm 19.697672 7.921335 41.232730
RightForeArm 15.344165 0.000000 37.612334
RightHand 3.951333 0.000000 -6.959718
RightHandThumb1 -24.326973 -0.000000 -32.862282
LeftShoulder -26.366606 34.591376 5.896932
LeftArm 40.253651 -22.533387 -63.592582
LeftForeArm 28.097628 0.000000 40.974684
LeftHand -24.843859 0.000000 -2.091845
LeftHandThumb1 -26.253704 0.000000 33.147579
Head -14.478925 12.355945 0.424686
995
root 4.223967 37.392376 7.362299 0.155568 -1.514377 -1.115785
RightUpLeg -6.808915 1.373265 -0.678153
RightLeg 22.164353 -0.000000 -0.000000
RightFoot -21.855348 -21.624539 17.394021
RightToeBase 1.909582 -0.000000 -0.000000
LeftUpLeg 6.955585 4.555348 2.247592
LeftLeg -3.479045 -0.000000 0.000000
LeftFoot -8.226785 11.469066 -16.496140
LeftToeBase 9.218789 -0.000000 -0.000000
Spine 15.172944 -10.182701 -6.846126
RightShoulder -4.914286 -20.483292 -20.866401
RightArm 19.417145 8.562100 40.852210
RightForeArm 15.165387 -0.000000 36.232023
RightHand 3.900561 -0.000000 -6.758311
RightHandThumb1 -24.326973 -0.000000 -32.862282
LeftShoulder -26.425107 34.666160 6.056866
LeftArm 40.450664 -23.035780 -63.408274
LeftForeArm 28.064647 -0.000000 40.248173
LeftHand -24.854348 -0.000000 -1.757045
LeftHandThumb1 -26.253704 0.000000 33.147579
Head -14.157129 12.420025 0.502548
996
root 4.213130 37.385088 7.384844 0.182173 -1.387220 -0.985891
RightUpLeg -5.990661 0.715068 -1.024075
RightLeg 20.722693 -0.000000 -0.000000
RightFoot -21.048855 -22.187015 17.007072
RightToeBase 1.323035 -0.000000 -0.000000
LeftUpLeg 6.913196 4.697103 2.157135
LeftLeg -3.425559 -0.000000 0.000000
LeftFoot -8.160206 11.229591 -16.443471
LeftToeBase 9.187632 -0.000000 -0.000000
Spine 14.729627 -10.169002 -6.710783
RightShoulder -5.035995 -20.283073 -20.990738
RightArm 19.094516 9.164984 40.396109
RightForeArm 15.055037 -0.000000 34.943064
RightHand 3.731975 -0.000000 -6.525094
RightHandThumb1 -24.326973 -0.000000 -32.862282
LeftShoulder -26.461236 34.704319 6.280605
LeftArm 40.620638 -23.557836 -63.294828
LeftForeArm 28.202392 -0.000000 39.570374
LeftHand -24.887514 -0.000000 -1.792920
LeftHandThumb1 -26.253704 0.000000 33.147579
Head -13.864920 12.449213 0.593871
997
root 4.199976 37.376785 7.406340 0.221264 -1.256090 -0.833902
RightUpLeg -5.198415 -0.062890 -1.377488
RightLeg 19.297619 -0.000000 -0.000000
RightFoot -19.910195 -22.791992 16.381231
RightToeBase 0.465202 -0.000000 -0.000000
LeftUpLeg 6.852043 4.890134 2.042771
LeftLeg -3.365827 -0.000000 0.000000
LeftFoot -8.082669 10.990000 -16.334130
LeftToeBase 9.152381 -0.000000 -0.000000
Spine 14.259490 -10.069099 -6.586335
RightShoulder -5.162485 -20.018368 -21.121620
RightArm 18.640669 9.700219 39.924780
RightForeArm 14.851188 -0.000000 33.653185
RightHand 3.844812 0.000000 -6.266267
RightHandThumb1 -24.326973 -0.000000 -32.862282
LeftShoulder -26.432850 34.782005 6.506756
LeftArm 40.854727 -24.103444 -63.141101
LeftForeArm 28.172851 -0.000000 38.915247
LeftHand -24.925372 -0.000000 -1.740386
LeftHandThumb1 -26.253704 0.000000 33.147579
Head -13.530551 12.405101 0.746760
998
root 4.192023 37.361294 7.433575 0.255911 -1.154308 -0.557957
RightUpLeg -4.337390 -0.664208 -1.880218
RightLeg 17.780764 -0.000000 -0.000000
RightFoot -18.972577 -23.131350 16.213766
RightToeBase 0.379102 -0.000000 -0.000000
LeftUpLeg 6.878920 4.882446 1.777737
LeftLeg -3.454723 -0.000000 0.000000
LeftFoot -7.998602 10.970780 -16.335488
LeftToeBase 9.127805 -0.000000 -0.000000
Spine 13.774197 -9.951765 -6.619127
RightShoulder -5.281146 -19.834169 -21.262780
RightArm 18.272962 10.313909 39.517020
RightForeArm 14.800467 -0.000000 32.441603
RightHand 3.746959 -0.000000 -6.075153
RightHandThumb1 -24.326973 -0.000000 -32.862282
LeftShoulder -26.408737 34.826498 6.801872
LeftArm 41.009451 -24.630558 -62.979261
LeftForeArm 28.089542 -0.000000 38.272946
LeftHand -24.871291 -0.000000 -1.504128
LeftHandThumb1 -26.253704 0.000000 33.147579
Head -13.187732 12.397115 0.929950
